<svg xmlns="http://www.w3.org/2000/svg" width="32" height="33" viewBox="0 0 32 33" fill="none">
  <mask id="path-1-inside-1_1_951" fill="white">
    <path d="M16 29.8334C14.1556 29.8334 12.4222 29.4832 10.8 28.7828C9.17778 28.0832 7.76667 27.1334 6.56667 25.9334C5.36667 24.7334 4.41689 23.3223 3.71733 21.7001C3.01689 20.0779 2.66667 18.3445 2.66667 16.5001C2.66667 14.6556 3.01689 12.9223 3.71733 11.3001C4.41689 9.67786 5.36667 8.26675 6.56667 7.06675C7.76667 5.86675 9.17778 4.91653 10.8 4.21608C12.4222 3.51653 14.1556 3.16675 16 3.16675C17.8444 3.16675 19.5778 3.51653 21.2 4.21608C22.8222 4.91653 24.2333 5.86675 25.4333 7.06675C26.6333 8.26675 27.5831 9.67786 28.2827 11.3001C28.9831 12.9223 29.3333 14.6556 29.3333 16.5001C29.3333 18.3445 28.9831 20.0779 28.2827 21.7001C27.5831 23.3223 26.6333 24.7334 25.4333 25.9334C24.2333 27.1334 22.8222 28.0832 21.2 28.7828C19.5778 29.4832 17.8444 29.8334 16 29.8334Z"/>
  </mask>
  <path d="M10.8 28.7828L11.5928 26.9466L11.592 26.9462L10.8 28.7828ZM3.71733 21.7001L5.55385 20.9081L5.55348 20.9073L3.71733 21.7001ZM3.71733 11.3001L5.55348 12.0929L5.55385 12.092L3.71733 11.3001ZM10.8 4.21608L10.008 2.37957L10.0072 2.37993L10.8 4.21608ZM21.2 4.21608L21.9928 2.37993L21.992 2.37957L21.2 4.21608ZM28.2827 11.3001L26.4462 12.092L26.4465 12.0929L28.2827 11.3001ZM28.2827 21.7001L26.4465 20.9073L26.4462 20.9081L28.2827 21.7001ZM21.2 28.7828L20.408 26.9462L20.4072 26.9466L21.2 28.7828ZM16 27.8334C14.416 27.8334 12.9537 27.5342 11.5928 26.9466L10.0072 30.6189C11.8907 31.4322 13.8951 31.8334 16 31.8334V27.8334ZM11.592 26.9462C10.1923 26.3427 8.99473 25.533 7.98088 24.5192L5.15245 27.3476C6.53861 28.7338 8.16324 29.8237 10.008 30.6193L11.592 26.9462ZM7.98088 24.5192C6.96704 23.5054 6.15743 22.3078 5.55385 20.9081L1.88082 22.492C2.67635 24.3368 3.7663 25.9615 5.15245 27.3476L7.98088 24.5192ZM5.55348 20.9073C4.96586 19.5463 4.66667 18.084 4.66667 16.5001H0.666668C0.666668 18.605 1.06792 20.6094 1.88119 22.4929L5.55348 20.9073ZM4.66667 16.5001C4.66667 14.9161 4.96586 13.4538 5.55348 12.0929L1.88119 10.5073C1.06792 12.3908 0.666668 14.3952 0.666668 16.5001H4.66667ZM5.55385 12.092C6.15743 10.6924 6.96704 9.49481 7.98088 8.48096L5.15245 5.65253C3.7663 7.03869 2.67635 8.66332 1.88082 10.5081L5.55385 12.092ZM7.98088 8.48096C8.99492 7.46692 10.1928 6.65673 11.5928 6.05223L10.0072 2.37993C8.16276 3.17632 6.53842 4.26657 5.15245 5.65253L7.98088 8.48096ZM11.592 6.0526C12.9531 5.46564 14.4157 5.16675 16 5.16675V1.16675C13.8954 1.16675 11.8914 1.56741 10.008 2.37957L11.592 6.0526ZM16 5.16675C17.5843 5.16675 19.0469 5.46564 20.408 6.0526L21.992 2.37957C20.1086 1.56741 18.1046 1.16675 16 1.16675V5.16675ZM20.4072 6.05223C21.8072 6.65673 23.0051 7.46692 24.0191 8.48096L26.8476 5.65253C25.4616 4.26657 23.8372 3.17632 21.9928 2.37993L20.4072 6.05223ZM24.0191 8.48096C25.033 9.49481 25.8426 10.6924 26.4462 12.092L30.1192 10.5081C29.3237 8.66332 28.2337 7.03869 26.8476 5.65253L24.0191 8.48096ZM26.4465 12.0929C27.0341 13.4538 27.3333 14.9161 27.3333 16.5001H31.3333C31.3333 14.3952 30.9321 12.3908 30.1188 10.5073L26.4465 12.0929ZM27.3333 16.5001C27.3333 18.0841 27.0341 19.5463 26.4465 20.9073L30.1188 22.4929C30.9321 20.6094 31.3333 18.605 31.3333 16.5001H27.3333ZM26.4462 20.9081C25.8426 22.3078 25.033 23.5054 24.0191 24.5192L26.8476 27.3476C28.2337 25.9615 29.3237 24.3368 30.1192 22.492L26.4462 20.9081ZM24.0191 24.5192C23.0053 25.533 21.8077 26.3427 20.408 26.9462L21.992 30.6193C23.8368 29.8237 25.4614 28.7338 26.8476 27.3476L24.0191 24.5192ZM20.4072 26.9466C19.0463 27.5342 17.584 27.8334 16 27.8334V31.8334C18.1049 31.8334 20.1093 31.4322 21.9928 30.6189L20.4072 26.9466Z" fill="#BEBEBE" mask="url(#path-1-inside-1_1_951)"/>
  <path d="M16 24.5C14.8933 24.5 13.8533 24.2899 12.88 23.8696C11.9067 23.4499 11.06 22.88 10.34 22.16C9.62 21.44 9.05013 20.5933 8.6304 19.62C8.21013 18.6467 8 17.6067 8 16.5C8 15.3933 8.21013 14.3533 8.6304 13.38C9.05013 12.4067 9.62 11.56 10.34 10.84C11.06 10.12 11.9067 9.54987 12.88 9.1296C13.8533 8.70987 14.8933 8.5 16 8.5C17.1067 8.5 18.1467 8.70987 19.12 9.1296C20.0933 9.54987 20.94 10.12 21.66 10.84C22.38 11.56 22.9499 12.4067 23.3696 13.38C23.7899 14.3533 24 15.3933 24 16.5C24 17.6067 23.7899 18.6467 23.3696 19.62C22.9499 20.5933 22.38 21.44 21.66 22.16C20.94 22.88 20.0933 23.4499 19.12 23.8696C18.1467 24.2899 17.1067 24.5 16 24.5Z" fill="#BEBEBE"/>
</svg>